<?xml version="1.0" encoding="UTF-8"?>
<svg id="Layer_2" data-name="Layer 2" xmlns="http://www.w3.org/2000/svg" viewBox="0 0 189.75 279.81">
  <defs>
    <style>
      .cls-1 {
        fill: #fff;
      }
    </style>
  </defs>
  <g id="mini-mini">
    <g>
      <path class="cls-1" d="M63.93,121.72c-.36.14-.81.18-1.25.17-.44-.01-.76-.28-.97-.7-.18-.34-.37-1.06-.49-2.11-.12-1.05-.24-2.17-.36-3.33-.12-1.16-.24-2.25-.36-3.26-.12-1.01-.18-1.77-.2-2.3-1.19-16.39-2.24-32.79-3.16-49.2-.94-16.73-2-33.44-3.18-50.16-.01-.53,0-1.08.04-1.65.04-.57.19-1.15.48-1.56.32-.44.98-.71,1.76-.74.87-.04,2.68-.02,5.39.04,2.71.06,5.59.18,8.64.36,3.05.18,5.96.37,8.72.57,2.76.2,4.59.31,5.47.34.49.02,1.04.1,1.63.24s1.13.44,1.49.88c.41.5.62,1.41.64,2.62.03,1.21.04,2.13.06,2.76.01.63.04,1.79.07,3.5.04,1.7.05,3.67.05,5.91,0,2.23.02,4.59.07,7.05.05,2.47.08,4.82.07,7.06,0,2.24-.01,4.21-.03,5.92-.01,1.71-.01,2.92,0,3.64.69-.07,2.09-.12,4.2-.15,2.11-.03,4.36-.05,6.72-.07s4.58,0,6.64.01c2.07.02,3.49,0,4.28-.05-.01-.56-.03-1.57-.06-3.04-.03-1.47-.06-3.14-.1-5.01-.04-1.87-.08-3.84-.12-5.91-.04-2.07-.08-4.06-.12-5.97-.04-1.91-.05-3.58-.03-5,.02-1.42.02-2.45.01-3.09,0-.14,0-.21,0-.36-.11-.65.22-1.02,1.01-1.1.79-.07,1.57-.02,2.36.14,4.64.97,9.22,1.91,13.71,2.81,4.49.91,9.32,2.16,13.71,2.73.82.11,1.52.49,1.94.98.41.48.55,1.2.48,1.91-.05.5-.07,1.61-.23,3.11-.17,1.5-.33,3.24-.48,5.2-.16,1.97-.34,4.06-.53,6.26-.2,2.21-.38,4.32-.53,6.32-.16,2-.32,3.79-.48,5.36-.16,1.57-.21,2.68-.23,3.24-.03.74-.18,2.18-.28,4.19-.11,2.01-.23,4.3-.37,6.88-.14,2.58-.28,5.35-.42,8.28-.14,2.94-.25,5.72-.34,8.34-.09,2.62-.17,4.96-.22,7.01-.06,2.05-.08,3.48-.06,4.28,0,.33-.08.7-.27,1.09-.19.39-.53.7-1.01.92-4.1,1.75-8.22,3.31-12.38,4.59-4.16,1.28-8.34,2.66-12.54,4.16-.49.16-.84.1-1.04-.15-.2-.26-.39-.59-.46-.94-.15-.71-.19-2.09-.23-3.96-.04-1.87-.06-4-.06-6.36,0-2.36,0-4.89,0-7.56,0-2.68.02-5.22.06-7.62.05-2.4.08-4.54.09-6.41.01-1.87,0-3.2,0-4-.69.07-2.06.22-4.12.45-2.06.24-4.27.47-6.63.7-2.36.23-4.59.44-6.7.64-2.11.2-3.51.34-4.2.4.13,6.37.26,12.66.39,18.9.13,6.23.35,12.47.68,18.67,0,.45.02.87.03,1.28,0,.4-.06.91-.27,1.37-.23.52-.98.9-1.75,1.22-.74.31-2.34,1.05-4.68,1.88-2.34.83-4.86,1.75-7.55,2.74-2.69,1-5.23,1.93-7.62,2.79-2.39.86-4.01,1.53-4.76,1.82Z"/>
      <path class="cls-1" d="M184.45,82.07c-3.62,1.25-7.23,2.4-10.85,3.42-3.62,1.02-7.24,2.08-10.86,3.19-.49.15-.95.27-1.4.35-.44.08-.86.07-1.26-.04-.59-.16-.9-.56-.91-1.18-1.22-6.46-2.31-13.13-3.29-19.93-.98-6.81-1.94-13.9-2.57-20.96-.32-3.52-.54-7.15-.81-10.75-.27-3.6-.44-7.21-.52-10.79-.01-.54.53-.72,1.61-.53,1.08.18,2.08.34,2.96.49,1.27.22,3.36.57,6.22,1.03,2.86.46,5.9,1,9.11,1.62,3.21.62,6.27,1.25,9.19,1.89,2.91.64,4.98,1.16,6.16,1.57.98.35,1.49.81,1.5,1.36-.73,7.53-1.33,15.27-1.81,23.13-.48,7.86-1.48,17.1-.32,23.87.05.29-.04.71-.42,1.15-.39.45-.97.82-1.75,1.11Z"/>
    </g>
    <g>
      <path class="cls-1" d="M67.08,274.02c-.25.29-.62.54-1.02.74-.4.2-.8.11-1.19-.15-.32-.22-.83-.75-1.44-1.62-.61-.87-1.25-1.79-1.91-2.75-.66-.96-1.29-1.86-1.88-2.69-.59-.83-1.01-1.47-1.27-1.92-8.87-13.84-17.62-27.74-26.27-41.72-8.81-14.25-17.73-28.43-26.74-42.55-.26-.46-.51-.95-.75-1.47-.24-.52-.39-1.1-.32-1.6.07-.54.52-1.09,1.19-1.49.75-.45,2.35-1.3,4.75-2.54,2.41-1.24,5-2.51,7.77-3.81,2.77-1.3,5.41-2.52,7.93-3.66,2.52-1.14,4.19-1.92,4.97-2.31.44-.22.96-.41,1.54-.57s1.2-.16,1.73.06c.6.24,1.22.95,1.82,2,.6,1.05,1.06,1.85,1.37,2.39.31.55.89,1.56,1.73,3.04.84,1.48,1.8,3.2,2.86,5.17,1.06,1.96,2.21,4.02,3.43,6.16,1.22,2.15,2.37,4.2,3.44,6.17,1.07,1.97,2,3.71,2.8,5.21.8,1.51,1.38,2.57,1.74,3.19.57-.39,1.78-1.11,3.62-2.14,1.84-1.03,3.8-2.12,5.87-3.26,2.07-1.14,4.02-2.19,5.84-3.16,1.83-.97,3.07-1.66,3.74-2.09-.28-.48-.78-1.36-1.51-2.64-.73-1.28-1.56-2.73-2.48-4.35-.93-1.62-1.9-3.33-2.93-5.13-1.03-1.8-2.01-3.53-2.96-5.18-.95-1.66-1.75-3.12-2.41-4.38-.66-1.26-1.15-2.16-1.47-2.72-.07-.12-.11-.19-.18-.31-.41-.52-.29-1.01.36-1.45.66-.44,1.37-.77,2.15-1.01,4.54-1.36,9.01-2.73,13.39-4.08,4.38-1.35,9.22-2.56,13.35-4.15.77-.3,1.57-.3,2.17-.06.59.23,1.06.79,1.34,1.45.2.47.71,1.45,1.28,2.84.57,1.4,1.26,3,2.06,4.8.8,1.8,1.64,3.72,2.52,5.76s1.73,3.98,2.55,5.81c.82,1.84,1.53,3.48,2.14,4.94.6,1.45,1.1,2.46,1.34,2.95.33.67.89,2,1.75,3.81.87,1.81,1.85,3.89,2.96,6.23,1.11,2.34,2.31,4.83,3.59,7.48,1.28,2.65,2.51,5.15,3.68,7.49,1.17,2.35,2.22,4.44,3.15,6.27.93,1.83,1.6,3.1,1.99,3.79.16.29.26.65.28,1.09.02.44-.13.87-.45,1.29-2.76,3.5-5.65,6.83-8.68,9.94-3.04,3.11-6.05,6.32-9.03,9.64-.36.37-.68.49-.98.36-.3-.13-.62-.33-.85-.6-.47-.55-1.16-1.74-2.09-3.37-.93-1.63-1.96-3.48-3.09-5.56-1.13-2.08-2.34-4.29-3.62-6.64-1.28-2.35-2.48-4.59-3.58-6.73-1.1-2.13-2.1-4.02-2.98-5.68-.88-1.65-1.52-2.82-1.92-3.51-.57.39-1.71,1.18-3.41,2.37-1.7,1.19-3.53,2.45-5.49,3.78-1.96,1.32-3.82,2.58-5.58,3.77-1.76,1.19-2.93,1.97-3.5,2.36,3.16,5.53,6.28,11,9.37,16.42,3.09,5.41,6.27,10.78,9.52,16.08.22.39.43.76.63,1.11.2.35.38.83.42,1.33.05.56-.43,1.26-.95,1.91-.5.63-1.55,2.04-3.22,3.89s-3.44,3.85-5.32,6.01c-1.88,2.16-3.67,4.19-5.36,6.09-1.69,1.9-2.79,3.26-3.31,3.88Z"/>
      <path class="cls-1" d="M154.03,181.64c-2.58,2.83-5.21,5.57-7.9,8.19-2.69,2.62-5.37,5.28-8.02,7.99-.36.37-.71.69-1.06.97-.35.28-.73.47-1.12.56-.6.14-1.05-.06-1.37-.61-4.16-5.09-8.3-10.43-12.41-15.94-4.11-5.51-8.34-11.28-12.27-17.18-1.96-2.94-3.89-6.02-5.85-9.06-1.96-3.03-3.83-6.12-5.61-9.23-.27-.47.12-.88,1.16-1.24,1.04-.36,1.99-.7,2.84-.98,1.22-.42,3.22-1.1,5.96-2.07,2.74-.96,5.66-1.94,8.78-2.92,3.12-.99,6.11-1.9,8.98-2.73,2.86-.83,4.93-1.36,6.16-1.56,1.03-.17,1.7,0,1.97.48,2.95,6.96,6.12,14.05,9.45,21.18,3.33,7.13,6.86,15.73,11.12,21.13.18.23.31.64.18,1.21-.12.58-.46,1.18-1.01,1.81Z"/>
    </g>
  </g>
</svg>