<?xml version="1.0" encoding="UTF-8"?>
<svg id="Layer_2" data-name="Layer 2" xmlns="http://www.w3.org/2000/svg" xmlns:xlink="http://www.w3.org/1999/xlink" viewBox="0 0 202 456.05">
  <defs>
    <style>
      .cls-1, .cls-2, .cls-3, .cls-4, .cls-5, .cls-6, .cls-7, .cls-8, .cls-9, .cls-10, .cls-11, .cls-12, .cls-13, .cls-14, .cls-15, .cls-16, .cls-17, .cls-18 {
        stroke-miterlimit: 10;
      }

      .cls-1, .cls-3 {
        stroke: #c6c6c6;
        stroke-width: 1.55px;
      }

      .cls-1, .cls-4, .cls-5, .cls-6, .cls-7, .cls-8, .cls-9, .cls-10, .cls-11 {
        fill: none;
      }

      .cls-2, .cls-8, .cls-11, .cls-13 {
        stroke-width: 1.78px;
      }

      .cls-2, .cls-19 {
        fill: #e5e1df;
      }

      .cls-2, .cls-11 {
        stroke: #c9c5c3;
      }

      .cls-3, .cls-20 {
        fill: #f9f9f9;
      }

      .cls-21, .cls-12, .cls-13, .cls-14, .cls-15, .cls-16, .cls-17, .cls-18 {
        fill: #f8fbfe;
      }

      .cls-22 {
        clip-path: url(#clippath-10);
      }

      .cls-23 {
        clip-path: url(#clippath-1);
      }

      .cls-24 {
        clip-path: url(#clippath-3);
      }

      .cls-25 {
        clip-path: url(#clippath-4);
      }

      .cls-26 {
        clip-path: url(#clippath-2);
      }

      .cls-27 {
        clip-path: url(#clippath-7);
      }

      .cls-28 {
        clip-path: url(#clippath-6);
      }

      .cls-29 {
        clip-path: url(#clippath-9);
      }

      .cls-30 {
        clip-path: url(#clippath-8);
      }

      .cls-31 {
        clip-path: url(#clippath-5);
      }

      .cls-32 {
        fill: #fff;
      }

      .cls-33 {
        fill: #191918;
      }

      .cls-4, .cls-5, .cls-6, .cls-7, .cls-8, .cls-9, .cls-10, .cls-12, .cls-13, .cls-14, .cls-15, .cls-16, .cls-17, .cls-18 {
        stroke: #d1d1d1;
      }

      .cls-4, .cls-17 {
        stroke-width: 1.27px;
      }

      .cls-5, .cls-18 {
        stroke-width: 1.19px;
      }

      .cls-6, .cls-14 {
        stroke-width: 1.49px;
      }

      .cls-7, .cls-15 {
        stroke-width: 1.41px;
      }

      .cls-9, .cls-12 {
        stroke-width: 1.34px;
      }

      .cls-10, .cls-16 {
        stroke-width: 1.75px;
      }

      .cls-34 {
        opacity: .1;
      }

      .cls-34, .cls-35, .cls-36, .cls-37, .cls-38, .cls-39, .cls-40 {
        fill: #20164c;
      }

      .cls-35, .cls-41 {
        opacity: .15;
      }

      .cls-36 {
        opacity: .05;
      }

      .cls-37 {
        opacity: .4;
      }

      .cls-38 {
        opacity: .25;
      }

      .cls-39, .cls-42 {
        opacity: .2;
      }

      .cls-40 {
        opacity: .3;
      }

      .cls-43 {
        fill: #0c0812;
      }

      .cls-44 {
        fill: #b33c33;
      }

      .cls-41, .cls-42 {
        fill: #d7c5ff;
      }

      .cls-45 {
        clip-path: url(#clippath);
      }
    </style>
    <clipPath id="clippath">
      <path class="cls-12" d="M112.23,408.24c8.5,9.83,15.47,18.96,21.97,27.25,1.41,1.79,1.67,3.74.68,5.15-2.47,3.51-9.1,6.2-9.52,12.5-8.54-16.76-16.5-33.27-13.14-44.9Z"/>
    </clipPath>
    <clipPath id="clippath-1">
      <path class="cls-17" d="M49.71,375.23c-7.31,7.15-25.1,9.47-37.64,13.07-2.56.74-3.92,2.29-3.52,3.96,1.31,5.45,4.14,9.49,8.24,12.36,19.53-7.42,35.06-15.95,32.92-29.39Z"/>
    </clipPath>
    <clipPath id="clippath-2">
      <path class="cls-15" d="M46.96,377.56c-5.85,15.66-18.81,4.01-36.25,25.78.57,3.65,2.49,5.97,6.92,8.45l-2.62,1.57c-.88.53-.55,1.69.71,2.54,15.06,10.11,30.68,17.91,47.48,20.88,1.13,1.97,4.94,3.5,8.7,4.3,3.62.77,7.18,6.55,22.49,7.61,5.77,6.5,8.5,3.52,30.25,6.62,3.76-1.58-3.81-17.4-12.42-47.09,14.2-10.36-66.6-50.83-65.27-30.68Z"/>
    </clipPath>
    <clipPath id="clippath-3">
      <path class="cls-18" d="M113.64,405.8c9.75-4.84,21.41-5.33,27.73-10.55,7.35-5.73,2.4-17.89,7.87-27.91-39.59-24.86-67.69-38.36-95.53-39.88-9.38,4.18-13.88,17.1-11.72,22.78,1.94,4.29,8.09,14.7,4.19,17.13-3.75.92-2.93,3.73,1.03,8.55,18.44-.59,42.03,13.5,66.43,29.87Z"/>
    </clipPath>
    <clipPath id="clippath-4">
      <path class="cls-16" d="M147.99,245.16c4.45,4.37,10.04,5.19,15.52,11.58,3.67,1.62,7.28,2.6,11.53,3.07,3.26.36,6.23,1.98,8.06,4.36,6.63,8.64,11.04,17.49,12.67,26.55.6,3.33-.05,6.69-1.88,9.58-11.21,17.68-12.51,34.77-24.37,56.26-1.82,3.3-7.08,9.32-11.3,10.04-9.69,1.65-15.97-2.28-28.32,2.16-3.55-1.77-5.21-4.48-6.13-6.86-7.74,2.19-16.09,3.69-25.25,4.24-3.99-.89-7.37-3.59-10.23-7.89-.36-.54-1.17-.66-1.72-.3-.85.55-1.9.81-3.15.78-3.97-2.04-5.09-5.16-9.36-5.4-8.79,2.02-10.04-.72-16.55,1.16-24.26,7.01-38.71-25.57-29.15-44.03,9.33-20.29,19.2-37.22,27.63-65.13,1.87-3.68,10.84-6.27,19.36-10.25,4.62-2.16,10.06-2.85,15.34-1.85,6.66,1.26,12.09,3.25,16.31,5.97.91.59,2.13.64,3.04.11s1.81-1.18,2.64-1.85c10.02,6.26,21.86,8.69,35.31,7.7Z"/>
    </clipPath>
    <clipPath id="clippath-5">
      <path class="cls-2" d="M8.45,120.91c.12,24.42,4.81,48.62,13.27,69.78,19.53,48.8,53.2,83.74,102.78,61.33,15.12-6.1,18.39-14.74,26.74-23.28,20.42-18.37-2.6-132.32-23.16-130.31-.58.06-88.77.29-88.77.29l-30.87,22.18Z"/>
    </clipPath>
    <clipPath id="clippath-6">
      <path class="cls-44" d="M51.33,241.41c19.43,31.98,51.32,19.42,45.37-18.48-8,21.09-28.99,26.72-45.37,18.48Z"/>
    </clipPath>
    <clipPath id="clippath-7">
      <ellipse class="cls-3" cx="77.44" cy="193.28" rx="21.19" ry="27.47" transform="translate(-124.83 242.68) rotate(-81.89)"/>
    </clipPath>
    <clipPath id="clippath-8">
      <ellipse class="cls-3" cx="12.08" cy="216.68" rx="27.47" ry="21.19" transform="translate(-157.57 81.35) rotate(-48.23)"/>
    </clipPath>
    <clipPath id="clippath-9">
      <path class="cls-13" d="M80.05,126.46c5.09,12.69,30.72,14.71,36.13,24.22,25.23,44.34,32.87,68.97,1.56,104.08,8.57,1.37,18.64-.25,26.59-4.79,18.36-15.44,42.7-38.69,53.64-68.03,11.24-66.26-7.15-96.29-64.32-130.61-37.28-10.03-97.35,15.24-118.52,50.78-7.28,12.22-25.23,29.26-4.75,45.45,1.55-7.13,4.52-18.65,14.13-23.32,21.37-5.54,32.17-1.06,55.54,2.22Z"/>
    </clipPath>
    <clipPath id="clippath-10">
      <path class="cls-14" d="M49.95,9.38c-2.85,10.73-5.45,19.33-.85,23.94-1.42-16.54,10.8-22.22,31.68-32.04,3.84-1.81,8.22,1.16,7.76,5.27-.47,4.16.11,7.14,17.93,7.35,11.06,0,25.88,1.5,25.71,8.54-21.3,9.92-37.6,28.63-35.96,53.94-14.4-10.14-42.22-11.06-56.04-1.06-11.68-5.07-9.47-14.84-16.73-19.01C-.33,42.64,26.56,6.65,49.95,9.38Z"/>
    </clipPath>
  </defs>
  <g id="mini-mini">
    <g>
      <g>
        <g>
          <path class="cls-21" d="M112.23,408.24c8.5,9.83,15.47,18.96,21.97,27.25,1.41,1.79,1.67,3.74.68,5.15-2.47,3.51-9.1,6.2-9.52,12.5-8.54-16.76-16.5-33.27-13.14-44.9Z"/>
          <g class="cls-45">
            <path class="cls-38" d="M110.79,401.14c3.87,18.71,12.73,36.21,29.77,51.71l-16.81,5.45c-15.24-22.93-22.45-43.01-12.95-57.17Z"/>
          </g>
          <path class="cls-9" d="M112.23,408.24c8.5,9.83,15.47,18.96,21.97,27.25,1.41,1.79,1.67,3.74.68,5.15-2.47,3.51-9.1,6.2-9.52,12.5-8.54-16.76-16.5-33.27-13.14-44.9Z"/>
        </g>
        <g>
          <path class="cls-21" d="M49.71,375.23c-7.31,7.15-25.1,9.47-37.64,13.07-2.56.74-3.92,2.29-3.52,3.96,1.31,5.45,4.14,9.49,8.24,12.36,19.53-7.42,35.06-15.95,32.92-29.39Z"/>
          <g class="cls-23">
            <path class="cls-38" d="M60.27,372.56c-19.26,16.2-45.81,14.1-55.03,29.36l5.9,4.99c27.85-8.98,47.26-19.77,49.13-34.35Z"/>
          </g>
          <path class="cls-4" d="M49.71,375.23c-7.31,7.15-25.1,9.47-37.64,13.07-2.56.74-3.92,2.29-3.52,3.96,1.31,5.45,4.14,9.49,8.24,12.36,19.53-7.42,35.06-15.95,32.92-29.39Z"/>
        </g>
        <g>
          <path class="cls-21" d="M46.96,377.56c-5.85,15.66-18.81,4.01-36.25,25.78.57,3.65,2.49,5.97,6.92,8.45l-2.62,1.57c-.88.53-.55,1.69.71,2.54,15.06,10.11,30.68,17.91,47.48,20.88,1.13,1.97,4.94,3.5,8.7,4.3,3.62.77,7.18,6.55,22.49,7.61,5.77,6.5,8.5,3.52,30.25,6.62,3.76-1.58-3.81-17.4-12.42-47.09,14.2-10.36-66.6-50.83-65.27-30.68Z"/>
          <g class="cls-26">
            <path class="cls-35" d="M111.68,443.33c-12.23-15.86-18.63-31.19-16.65-45.74,1.3,24.29,24.16,38.19,16.65,45.74Z"/>
            <path class="cls-35" d="M107.07,436.71c-23-19.33-41.93-40.88-35.02-46.66,5.2,12.61,15.73,28.32,35.02,46.66Z"/>
            <path class="cls-36" d="M47.29,386.44c3.64,13.69,8.12,29.96,17.18,31.19-7.76-10.8-13.85-21.27-17.18-31.19Z"/>
            <path class="cls-35" d="M57.04,371.32c-2.77,4.87-2.28,11.53,1.13,20.45-3.67-3.59-6.48-8.48-8.93-13.94l7.8-6.5Z"/>
            <path class="cls-35" d="M98.19,451.77c-6.22-5.09-11.32-12.38-15.62-21.02-2.56,6.89-1.62,13.44-.62,21.57l16.24-.55Z"/>
            <path class="cls-35" d="M62.93,438.63c.04-4.54,4.05-10.17,9.44-17.73-9.25,6.26-17.19,10.93-20.85,15.34l11.42,2.39Z"/>
            <path class="cls-35" d="M14.57,414.11c6.47-4,14.7-8.58,23.33-11.1-12.49.88-20.88,4.78-29.31,7l5.98,4.11Z"/>
            <path class="cls-35" d="M43.31,377.76c30.58,6.32,57.28,21,81.58,40.86l10.35-4.92c-28.35-25.18-58.64-42.34-92.61-44.28l.68,8.34Z"/>
            <path class="cls-35" d="M46.41,377.82c30.3,4.92,57.76,18.63,83.47,37.77l9.48-5.59c-30.22-24.41-61.43-40.48-94.53-40.72l1.58,8.53Z"/>
          </g>
          <path class="cls-7" d="M46.96,377.56c-5.85,15.66-18.81,4.01-36.25,25.78.57,3.65,2.49,5.97,6.92,8.45l-2.62,1.57c-.88.53-.55,1.69.71,2.54,15.06,10.11,30.68,17.91,47.48,20.88,1.13,1.97,4.94,3.5,8.7,4.3,3.62.77,7.18,6.55,22.49,7.61,5.77,6.5,8.5,3.52,30.25,6.62,3.76-1.58-3.81-17.4-12.42-47.09,14.2-10.36-66.6-50.83-65.27-30.68Z"/>
        </g>
        <g>
          <path class="cls-21" d="M113.64,405.8c9.75-4.84,21.41-5.33,27.73-10.55,7.35-5.73,2.4-17.89,7.87-27.91-39.59-24.86-67.69-38.36-95.53-39.88-9.38,4.18-13.88,17.1-11.72,22.78,1.94,4.29,8.09,14.7,4.19,17.13-3.75.92-2.93,3.73,1.03,8.55,18.44-.59,42.03,13.5,66.43,29.87Z"/>
          <g class="cls-24">
            <path class="cls-35" d="M114.06,402.07c-12.36-16.54-18.28-32.03-14.91-46.02-.48,23.77,23.89,39.33,14.91,46.02Z"/>
            <path class="cls-35" d="M100.48,386.69c-25.53-20.29-45.26-41.89-37.31-47.27,5.21,13.15,15.8,28.94,37.31,47.27Z"/>
            <path class="cls-36" d="M72.84,363c-11.96-8.76-19.21-17.64-19.65-26.69,3.44,8.74,10.36,17.65,19.65,26.69Z"/>
            <path class="cls-35" d="M102.27,398.17c-44.09-28.9-60.03-47.32-53.83-54.58,8.07,18.38,28.03,36.54,53.83,54.58Z"/>
            <path class="cls-36" d="M80.23,388.71c-13.12-8.33-26.41-16.72-27.89-21.25-2.79-3.61-5.82-9.55-8.87-15.64,2.25,6.35,5.18,13.61,4.02,15.38,6.49,5.8,19.64,13.67,32.74,21.52Z"/>
            <path class="cls-35" d="M135.51,375.16c-12.32,3.59-17.92,10.94-17.7,21.56,4.1-8.48,9.68-15.9,17.7-21.56Z"/>
            <path class="cls-35" d="M152.03,388.95c-22.23,1.48-30.59,12.33-43.76,20.54l41.9-11.13,1.85-9.42Z"/>
            <path class="cls-41" d="M40.62,332.68c-7.77,9.28-2.01,18.46,4.07,31.62-10.32-10.01-19.96-19.77-21.29-26.46l17.23-5.16Z"/>
            <path class="cls-41" d="M148.84,372.6c-6.06,16.82-17.47,25.81-28.17,32.12l29.51-6.35-1.33-25.77Z"/>
            <path class="cls-35" d="M50.4,324.28l112.62,44.77-11.58,8.72c-1.81,1.42-4.84,1.88-8.23,1.25-7.78-1.43-17.7-4.72-27.88-5.22-2.57-1.86-3.56-3.8-4-5.36-6.31-.65-13.02-1.84-20.26-3.76-3.02-1.47-5.36-3.82-7.1-6.94-.22-.39-.84-.66-1.31-.59-.73.1-1.58,0-2.55-.33-2.87-2.12-3.38-4.15-6.7-5.32-7.12-1-13.09-3.38-18.4-3.9-12.38-1.22-11.79-14.76-14.05-22.71l9.44-.61Z"/>
            <path class="cls-35" d="M45.32,328.94c2.26,7.95-.28,8.9,12.09,10.12,5.31.52,10.29,8.06,17.41,9.06,3.32,1.18,3.83,3.21,6.7,5.32.97.32,1.83.43,2.55.33.48-.07,1.09.2,1.31.59,1.74,3.12,4.08,5.47,7.1,6.94,7.24,1.92,13.94,3.11,20.26,3.76.44,1.56,1.43,3.5,4,5.36,10.18.5,20.1,3.79,27.88,5.22,3.39.62,6.42.16,8.23-1.25l11.58-8.72-109.67-43.6-9.44,6.87Z"/>
          </g>
          <path class="cls-5" d="M113.64,405.8c9.75-4.84,21.41-5.33,27.73-10.55,7.35-5.73,2.4-17.89,7.87-27.91-39.59-24.86-67.69-38.36-95.53-39.88-9.38,4.18-13.88,17.1-11.72,22.78,1.94,4.29,8.09,14.7,4.19,17.13-3.75.92-2.93,3.73,1.03,8.55,18.44-.59,42.03,13.5,66.43,29.87Z"/>
        </g>
      </g>
      <g>
        <path class="cls-21" d="M147.99,245.16c4.45,4.37,10.04,5.19,15.52,11.58,3.67,1.62,7.28,2.6,11.53,3.07,3.26.36,6.23,1.98,8.06,4.36,6.63,8.64,11.04,17.49,12.67,26.55.6,3.33-.05,6.69-1.88,9.58-11.21,17.68-12.51,34.77-24.37,56.26-1.82,3.3-7.08,9.32-11.3,10.04-9.69,1.65-15.97-2.28-28.32,2.16-3.55-1.77-5.21-4.48-6.13-6.86-7.74,2.19-16.09,3.69-25.25,4.24-3.99-.89-7.37-3.59-10.23-7.89-.36-.54-1.17-.66-1.72-.3-.85.55-1.9.81-3.15.78-3.97-2.04-5.09-5.16-9.36-5.4-8.79,2.02-10.04-.72-16.55,1.16-24.26,7.01-38.71-25.57-29.15-44.03,9.33-20.29,19.2-37.22,27.63-65.13,1.87-3.68,10.84-6.27,19.36-10.25,4.62-2.16,10.06-2.85,15.34-1.85,6.66,1.26,12.09,3.25,16.31,5.97.91.59,2.13.64,3.04.11s1.81-1.18,2.64-1.85c10.02,6.26,21.86,8.69,35.31,7.7Z"/>
        <g class="cls-25">
          <path class="cls-35" d="M102.96,242.59c-6.43.81-14.16.18-19.34,1.9l-28.08,38.62,31.38-34.33c3.22-2.63,10.95-3.5,16.04-6.19Z"/>
          <path class="cls-35" d="M196.44,281.55c-3.74,11.15-33.12,52.43-44.04,57.73,8.85-1.9,39.67-33,46.04-46.74l-2-10.99Z"/>
          <path class="cls-35" d="M124.85,252.26c-3.51-.55-7.03-.84-10.79,1.62-11.53,16.17-22.54,38-35.44,60.75,16.22-20.36,31.12-40.28,37.74-57.41.78-3.48,4.6-4.26,8.49-4.96Z"/>
          <path class="cls-36" d="M99.42,279.77c-17.93,20.85-35.36,38.8-50.8,45.53,13.28-10.09,31.77-27.43,50.8-45.53Z"/>
          <path class="cls-36" d="M62.13,284.89c-13.3,13.47-19.79,26.64-22.17,39.64,5.61-13.1,13.13-26.32,22.17-39.64Z"/>
          <path class="cls-35" d="M86.56,357.95c19.44,7.54,25.52-7.4,37.31-30.36-1.36,12.55-2.68,24.9-2.51,30.04-.68,1.87,1.58,5.48,4.12,9.25l-23.68,4.67-15.24-13.6Z"/>
          <path class="cls-35" d="M124.53,322.74c-5.32-1.75-4.04-15.69,4.94-35.48l-4.94,35.48Z"/>
          <path class="cls-35" d="M135.01,346.37c4.6-33.33,10.82-71.94,6.66-76.4-3.56,30.22-6.23,57.29-6.66,76.4Z"/>
          <path class="cls-35" d="M135.11,250.18c3.91,5.48,8.31,10.11,12.84,13.32,5.17,22.41,6.27,39.09,2.26,48.59-.78-15.14-4.89-31.47-5.62-47.8-4.36-3.09-7.14-8.3-9.49-14.11Z"/>
          <path class="cls-35" d="M172.45,256.77c-10.85-10.94-23.6-15.32-38.24-13.14,17.93,11.94,30.29,15.76,38.24,13.14Z"/>
          <path class="cls-35" d="M123.48,239.97c-5.88,3.32-11.96,3.19-18.34-2.1l4.8-6.07,13.54,8.17Z"/>
          <path class="cls-35" d="M186.71,317.03c-20.81,43.29-56.51,40.9-68.12,51.82l27.36,6.99,35.05-9.08,5.71-49.74Z"/>
          <path class="cls-35" d="M71.02,353.68c-43.65-3.42-39.68-30.09-30.22-70.31-14.13,16.53-22.27,35.57-27.67,55.75l19.28,21.08,38.61-6.53Z"/>
          <path class="cls-42" d="M203.4,317.67c-23.15-43.5-106.38-70.97-163.13-58.71l30.82-28.41c47.59-7.54,88.64-1.62,115.08,34.32,21.38,11.4,19.67,31.96,17.23,52.8Z"/>
          <path class="cls-41" d="M99.1,329.25c-.3-20.13,13.56-44.57,17.94-64.81-14.62,25.45-27.41,49.2-48.66,73.88,21.78-16.79,22.91-22.55,30.71-9.07Z"/>
          <path class="cls-41" d="M153.52,271.74c9.79,23.13,16.93,44.86-2.12,52.78,6.33-13.31,4.87-32.55,2.12-52.78Z"/>
          <path class="cls-35" d="M74.58,356.71c5.71-3.91,8.98-13.02,12-22.66-7.37,9.81-15.57,18.45-25.99,23.95l14-1.29Z"/>
        </g>
        <path class="cls-10" d="M147.99,245.16c4.45,4.37,10.04,5.19,15.52,11.58,3.67,1.62,7.28,2.6,11.53,3.07,3.26.36,6.23,1.98,8.06,4.36,6.63,8.64,11.04,17.49,12.67,26.55.6,3.33-.05,6.69-1.88,9.58-11.21,17.68-12.51,34.77-24.37,56.26-1.82,3.3-7.08,9.32-11.3,10.04-9.69,1.65-15.97-2.28-28.32,2.16-3.55-1.77-5.21-4.48-6.13-6.86-7.74,2.19-16.09,3.69-25.25,4.24-3.99-.89-7.37-3.59-10.23-7.89-.36-.54-1.17-.66-1.72-.3-.85.55-1.9.81-3.15.78-3.97-2.04-5.09-5.16-9.36-5.4-8.79,2.02-10.04-.72-16.55,1.16-24.26,7.01-38.71-25.57-29.15-44.03,9.33-20.29,19.2-37.22,27.63-65.13,1.87-3.68,10.84-6.27,19.36-10.25,4.62-2.16,10.06-2.85,15.34-1.85,6.66,1.26,12.09,3.25,16.31,5.97.91.59,2.13.64,3.04.11s1.81-1.18,2.64-1.85c10.02,6.26,21.86,8.69,35.31,7.7Z"/>
      </g>
      <g>
        <path class="cls-19" d="M8.45,120.91c.12,24.42,4.81,48.62,13.27,69.78,19.53,48.8,53.2,83.74,102.78,61.33,15.12-6.1,18.39-14.74,26.74-23.28,20.42-18.37-2.6-132.32-23.16-130.31-.58.06-88.77.29-88.77.29l-30.87,22.18Z"/>
        <g class="cls-31">
          <g>
            <path class="cls-44" d="M51.33,241.41c19.43,31.98,51.32,19.42,45.37-18.48-8,21.09-28.99,26.72-45.37,18.48Z"/>
            <g class="cls-28">
              <path class="cls-40" d="M103.19,257.47c-1.78,4.33-13.74,7.4-26.71,6.85-12.97-.55-22.03-4.51-20.24-8.84,1.78-4.33,13.74-7.4,26.71-6.85,12.97.55,22.03,4.51,20.24,8.84Z"/>
            </g>
          </g>
          <g>
            <path class="cls-39" d="M41.44,167.67c21.99,2.82,32.37-2.04,34.86-12.12-16.82-3.46-27.87,1.41-34.86,12.12Z"/>
            <path class="cls-43" d="M44.57,155.72c-3.09,3.64-3.65,7.87-3.09,12.35,15.8-7.46,26.92-11.42,44.87-9.5.74.08,1.05-.93.39-1.28-9.6-5.1-18.76-5.21-34.99-5.45-2.79-.04-5.35,1.73-7.17,3.88Z"/>
          </g>
          <g>
            <path class="cls-39" d="M23.71,171.99c-15,16.33-26.07,19.29-34.47,13.2,10.64-13.48,22.22-16.89,34.47-13.2Z"/>
            <path class="cls-43" d="M13.62,164.86c4.71.79,7.86,3.67,10.32,7.45-16.89,4.48-27.94,8.61-40.43,21.64-.51.53-1.4-.03-1.12-.72,4.05-10.09,10.99-16.07,23.25-26.72,2.1-1.83,5.21-2.12,7.99-1.65Z"/>
          </g>
          <ellipse class="cls-37" cx="77.84" cy="195.94" rx="22.4" ry="28.72" transform="translate(-127.12 245.36) rotate(-81.89)"/>
          <g>
            <ellipse class="cls-20" cx="77.44" cy="193.28" rx="21.19" ry="27.47" transform="translate(-124.83 242.68) rotate(-81.89)"/>
            <g class="cls-27">
              <ellipse class="cls-33" cx="84.35" cy="181.07" rx="9.67" ry="8.19" transform="translate(-42.89 27.09) rotate(-14.59)"/>
              <path class="cls-39" d="M77.91,210.77c14.56,1.91,23.17-3.52,21.8-21.26-1.6,15.14-9.45,21.4-21.8,21.26Z"/>
            </g>
            <ellipse class="cls-1" cx="77.44" cy="193.28" rx="21.19" ry="27.47" transform="translate(-124.83 242.68) rotate(-81.89)"/>
          </g>
          <g>
            <ellipse class="cls-20" cx="12.08" cy="216.68" rx="27.47" ry="21.19" transform="translate(-157.57 81.35) rotate(-48.23)"/>
            <g class="cls-30">
              <ellipse class="cls-33" cx=".86" cy="206.19" rx="9.67" ry="8.19" transform="translate(-88.77 20.5) rotate(-25.53)"/>
              <path class="cls-39" d="M23,230.36c-9.9,10.84-19.99,12.24-30.37-2.21,10.98,10.55,21.01,10.27,30.37,2.21Z"/>
            </g>
            <ellipse class="cls-1" cx="12.08" cy="216.68" rx="27.47" ry="21.19" transform="translate(-157.57 81.35) rotate(-48.23)"/>
          </g>
          <g>
            <ellipse class="cls-39" cx="61.52" cy="230.72" rx="4.25" ry="3.74" transform="translate(-10.72 3.13) rotate(-2.68)"/>
            <ellipse class="cls-32" cx="61.12" cy="229.08" rx="4.25" ry="3.74" transform="translate(-10.64 3.11) rotate(-2.68)"/>
          </g>
          <g>
            <ellipse class="cls-39" cx="45.25" cy="234.71" rx="4.4" ry="4.82" transform="translate(-10.92 2.37) rotate(-2.68)"/>
            <ellipse class="cls-32" cx="45.18" cy="233.23" rx="4.4" ry="4.82" transform="translate(-10.85 2.37) rotate(-2.68)"/>
          </g>
          <path class="cls-39" d="M51.42,132.5c11.87,1.26,23.34,5.14,33.5,11.41,9.51,5.88,24.49,8.53,28.4,15.29,24.58,42.58,34.99,69.3,3.39,103.62,8.51,1.22,15.47-3.46,23.44-7.94,18.46-15.15,32.77-38,44.01-66.5,11.99-64.21.15-95.36-56.36-127.86C78.08,48.09-9.28,100.23,7.33,151.52c1.63-6.92,5.42-12.14,15.04-16.77,11.58-3.05,20.03-3.2,29.05-2.25Z"/>
        </g>
        <path class="cls-11" d="M8.45,120.91c.12,24.42,4.81,48.62,13.27,69.78,19.53,48.8,53.2,83.74,102.78,61.33,15.12-6.1,18.39-14.74,26.74-23.28,20.42-18.37-2.6-132.32-23.16-130.31-.58.06-88.77.29-88.77.29l-30.87,22.18Z"/>
      </g>
      <g>
        <path class="cls-21" d="M80.05,126.46c5.09,12.69,30.72,14.71,36.13,24.22,25.23,44.34,32.87,68.97,1.56,104.08,8.57,1.37,18.64-.25,26.59-4.79,18.36-15.44,42.7-38.69,53.64-68.03,11.24-66.26-7.15-96.29-64.32-130.61-37.28-10.03-97.35,15.24-118.52,50.78-7.28,12.22-25.23,29.26-4.75,45.45,1.55-7.13,4.52-18.65,14.13-23.32,21.37-5.54,32.17-1.06,55.54,2.22Z"/>
        <g class="cls-29">
          <path class="cls-35" d="M112.95,251.3c20.43-5.02,39.32-35.09,36.87-78.37,8.19,25.91,7.02,39.39,1.41,55.82,18-16.15,33.62-32.65,39.35-50.23,8.36-25.64,1.42-53.45-2.41-84.72,25.15,27.74,34.53,62.61,28.09,104.66l-72.58,72.81c-23.61.79-37.83-2.86-30.73-19.96Z"/>
          <path class="cls-35" d="M180.85,191.03c2.35-7.57,3.57-14.8,2.23-21.28-4.12-6.89-13.54-22.84-14.8-40.1,4.46,18.38,17.61,33.77,22.2,39.9-1.74,10.29-5.32,16.66-9.63,21.47Z"/>
          <path class="cls-35" d="M166.69,123.31c3.45-30.13-20.4-43.18-64.32-47.04,31.34,12.79,60.58,24.22,64.32,47.04Z"/>
          <path class="cls-35" d="M96.22,76.38c10.57-16.51,32.6-23.72,53.05-28.73l-55.78-8.38,2.73,37.11Z"/>
          <path class="cls-41" d="M56.82,62.06c83.03,1.63,132.66,29.62,158.53,80.19-.88-21.11-5.72-43.91-40.66-79.44l-57.57-29.47-60.3,28.72Z"/>
          <path class="cls-35" d="M-7.2,136.44c9.76-20.38,24.27-22.77,57.24-31.99-19.49.15-39.83,1.94-58.67,21.47l1.44,10.52Z"/>
        </g>
        <path class="cls-8" d="M80.05,126.46c5.09,12.69,30.72,14.71,36.13,24.22,25.23,44.34,32.87,68.97,1.56,104.08,8.57,1.37,18.64-.25,26.59-4.79,18.36-15.44,42.7-38.69,53.64-68.03,11.24-66.26-7.15-96.29-64.32-130.61-37.28-10.03-97.35,15.24-118.52,50.78-7.28,12.22-25.23,29.26-4.75,45.45,1.55-7.13,4.52-18.65,14.13-23.32,21.37-5.54,32.17-1.06,55.54,2.22Z"/>
      </g>
      <g>
        <path class="cls-21" d="M49.95,9.38c-2.85,10.73-5.45,19.33-.85,23.94-1.42-16.54,10.8-22.22,31.68-32.04,3.84-1.81,8.22,1.16,7.76,5.27-.47,4.16.11,7.14,17.93,7.35,11.06,0,25.88,1.5,25.71,8.54-21.3,9.92-37.6,28.63-35.96,53.94-14.4-10.14-42.22-11.06-56.04-1.06-11.68-5.07-9.47-14.84-16.73-19.01C-.33,42.64,26.56,6.65,49.95,9.38Z"/>
        <g class="cls-22">
          <path class="cls-35" d="M89.69,4.15c.3,9.71-7.56,22.95-12.27,34.05,10.63-13.44,23.06-23.62,38.91-27.59l-26.64-6.47Z"/>
          <path class="cls-35" d="M49.1,33.32c1.52,6.02,5.2,11.15,9.96,15.84-6.99-13.58-4.45-29.29,3.94-46.32-9.02,10.3-19.01,20.63-13.9,30.47"/>
          <path class="cls-35" d="M81.41,70.58c16.81-23.37,29.14-41.9,44.83-41.3l-23.19,59.3-21.64-17.99Z"/>
          <path class="cls-41" d="M13.95,50.27c-3.43-15.59,11.54-34.63,28.52-32.42-2.68,10.97,4.47,18.03,8.93,22.79-1.47-16.95,7.36-23.02,27.44-32.94,3.69-1.82,7.94,1.24,7.52,5.45-.43,4.25.15,7.31,17.34,7.64,10.67.07,24.97,1.7,24.84,8.91l10.77-10.69c-11.22-11.05-26.72-13.82-45.3-10.6l-1.73-16.38L54.9,9.11l-2.9-7.41C23.02,7.49,4.46,19.93,13.95,50.27Z"/>
          <path class="cls-35" d="M13.95,50.27c19.09,13.46,46.3,11.13,67.46,20.31l-44.61,16.71L13.95,50.27Z"/>
        </g>
        <path class="cls-6" d="M49.95,9.38c-2.85,10.73-5.45,19.33-.85,23.94-1.42-16.54,10.8-22.22,31.68-32.04,3.84-1.81,8.22,1.16,7.76,5.27-.47,4.16.11,7.14,17.93,7.35,11.06,0,25.88,1.5,25.71,8.54-21.3,9.92-37.6,28.63-35.96,53.94-14.4-10.14-42.22-11.06-56.04-1.06-11.68-5.07-9.47-14.84-16.73-19.01C-.33,42.64,26.56,6.65,49.95,9.38Z"/>
      </g>
      <path class="cls-34" d="M74.59,104.43c18.63,4.78,34.77,2.81,48.93,10.64,8.11,5.49,11.24,18.98,14.99,31.47-5.74-11.22-10.12-19.53-17.63-27.78-6.57-5.25-28.41-7-46.29-14.33Z"/>
    </g>
  </g>
</svg>